<?xml version="1.0" encoding="utf-8"?>
<!-- Generator: Adobe Illustrator 16.0.0, SVG Export Plug-In . SVG Version: 6.00 Build 0)  -->
<!DOCTYPE svg PUBLIC "-//W3C//DTD SVG 1.1//EN" "http://www.w3.org/Graphics/SVG/1.1/DTD/svg11.dtd">
<svg version="1.1" id="Layer_1" xmlns="http://www.w3.org/2000/svg" xmlns:xlink="http://www.w3.org/1999/xlink" x="0px" y="0px"
	 width="1024px" height="768px" viewBox="0 0 1024 768" enable-background="new 0 0 1024 768" xml:space="preserve">
<image overflow="visible" width="1024" height="768" xlink:href="bedroom_1.jpg"  transform="matrix(1 0 0 1 0 2.441406e-004)">
</image>
<path fill="#FFFFFF" d="M568.542,504.501c2.041,0,2.833,6.499,6.333,4.374s6.75-7.994,8.5,0.439s0.25,5.811-5.875,8.811
	s-14.75,16.375-26.5,15.75s-11.875-8.25-8.5-11.5c-6.625,4-25.375,10.646-26.125-3.053c1.375-10.072,13.125-6.822,15.25-11.697
	S536.5,498.5,539,500.25s8.788,3.295,11.216,2.25c6.159-2.651,10.034,4.125,10.284,4.5S566.501,504.501,568.542,504.501z"/>
<path fill="#FFFFFF" d="M498.75,525h6c0,0-2.5,30,0,34.5s4.5-1.25,5.5,23.5s2.25,38.5-1.25,41s-12.75,0.5-17,0s-7-6.5-7.75-9.25
	s2-51,2.5-52.75s7-6,8.5-17.25S498.75,525,498.75,525z"/>
<path fill="#FFFFFF" d="M107.5,84.667c0,0,0-4.333,52.833-3.167c-0.667-19.667-1.5-22.167,6.167-23.333s61.833-12.333,63.833-11.667
	s17.167,9,17.167,9s16.333-4.667,17.333-2s4.333,14.333,4.333,14.333L299.5,78.167l9.333,18l2,24l-4.667,15l9.667,148.667
	l13,188.332l-6,5.334l-2,10.334l-16,2.332l-4-8.666l-121.667-4.334l-9,13H157.5l-9.667-12.666l-31.333-2.334l-6.667,10L98.5,485.5
	l-3-11l-5-1.666L101.167,87.5L107.5,84.667z"/>
<path fill="#FFFFFF" d="M617.5,541.75c0,0-32.75-46,29-77.5c-1.75-8,0-8.75,0-8.75l26.5,2.25l-4.5,8.5c0,0,68,27.251,11.75,85
	C636,564.25,617.5,541.75,617.5,541.75z"/>
<path fill="#FFFFFF" stroke="#000000" stroke-miterlimit="10" d="M895.167,378.834c-4-1.667-6.666,1.667-8-3.333s4-28.667,4-28.667
	s1.334-2.333,2-4.333s6-2.333,6.333,0s5.333,3.667,5.333,3.667s2.668-27.333,5.334-28.333s5-12.667,9.333-9.667
	s1.666,7.333,4.333,10s5.333,10.333,6,17s5.667,8,7.667,12s12.666,4.333,15.333,4.333s0.666,7.667,0,11.667
	s0.001,13.334-1.666,15.667S941.5,383.5,931.5,384S895.167,378.834,895.167,378.834z"/>
<path id="lunettes" fill="#FFFFFF" stroke="#000000" stroke-miterlimit="10" d="M917.834,583.167c-3,0-8.5-0.833-7.5-2.333
	s3.667-3.667,10.5-4.667s21.833,0.334,23.333,0.834s5.834,2.499,1.334,6.166s-6.833,4.168-8,8.334s0.166,7.666-4.667,7.666
	s-5.334,2.333-11.667,0s-8.166-2.999-9.333-1.166s-10.166,6.166-7.333,1.166s6.333-6.333,10.333-6.833s10.001-4.001,7.667-5.667
	S917.834,583.167,917.834,583.167z"/>
<path id="pipe" fill="#FFFFFF" stroke="#000000" stroke-miterlimit="10" d="M853.125,737.875c0,0,16.25-4.125,22-1.125
	s17.625,13.25,26.625,3.125s-14.25-12.375-15.25-6.25c-8.625-3.625-29.25-6.25-31.375-2.125s-2,6-2,6"/>
<path fill="#FFFFFF" stroke="#000000" stroke-miterlimit="10" d="M886.953,324L889,121l-13-8l-24.5,9l-39-12c0,0-12,10.5-22,9
	s-29.5,9.5-29.5,9.5L753.5,296l7.5,5l-0.5,19L886.953,324z"/>
<path fill="#FFFFFF" stroke="#000000" stroke-miterlimit="10" d="M540.833,208.5c0,0,15.334-12.333,14.334-12.667s6-19,6-19
	l9.333-5.667l-7-25.333h-11l-8.333,27.667l-11.667-2.667l-4-25h-12.333l-5.667,24.333l6,1.667c0,0,22,32,22,35
	s-174.667-2.667-174.667-2.667s28.667-24.333,28.667-25.333s-1.667-24-3-25s-19.333-2-20,1.667s-0.667,16.333-0.667,16.333
	s-11.667-8-12.333-12.333s-15.667-5-16.667-2.667s-4.667,22-4.333,23s12.667,7.667,14.333,9.333s7.667,17.667,7.667,17.667
	l6.333-2.667"/>
</svg>
