<?xml version="1.0" encoding="utf-8"?>
<!-- Generator: Adobe Illustrator 16.0.0, SVG Export Plug-In . SVG Version: 6.00 Build 0)  -->
<!DOCTYPE svg PUBLIC "-//W3C//DTD SVG 1.1//EN" "http://www.w3.org/Graphics/SVG/1.1/DTD/svg11.dtd">
<svg version="1.1" id="Layer_1" xmlns="http://www.w3.org/2000/svg" xmlns:xlink="http://www.w3.org/1999/xlink" x="0px" y="0px"
	 width="1956px" height="748px" viewBox="0 0 1956 748" enable-background="new 0 0 1956 748" xml:space="preserve">
<g>
	
		<image overflow="visible" enable-background="new    " width="1956" height="748" xlink:href="boatDeck.png"  transform="matrix(1 0 0 1 0 2.441406e-004)">
	</image>
</g>
<path fill="#FFFFFF" d="M1264,211v67.5h184.5V296H1651v-85h-15.5c0,0-50.5-29-97,0c-1,0.5-29,0-29,0s-41.5-30-103.5,0
	c-1.5,0.5-29.5,0-29.5,0s-46-32-97,0H1264z"/>
<path fill="#FFFFFF" stroke="#000000" stroke-miterlimit="10" d="M1749.501,334h16.624v6.831h15.376V334h16.166
	c14.334,14.166,11.834,74.084,0,92.751h-16.166V416h-15.376v10.751h-16.624V334z"/>
<path id="stairs" fill="#FFFFFF" stroke="#000000" stroke-miterlimit="10" d="M1446,416.25h-76.5v-4.5c0,0-38.25-29.5,0-62.25v-3.25
	h76.5V416.25z"/>
</svg>
