<?xml version="1.0" encoding="utf-8"?>
<!-- Generator: Adobe Illustrator 16.0.0, SVG Export Plug-In . SVG Version: 6.00 Build 0)  -->
<!DOCTYPE svg PUBLIC "-//W3C//DTD SVG 1.1//EN" "http://www.w3.org/Graphics/SVG/1.1/DTD/svg11.dtd">
<svg version="1.1" id="Layer_1" xmlns="http://www.w3.org/2000/svg" xmlns:xlink="http://www.w3.org/1999/xlink" x="0px" y="0px"
	 width="1024px" height="768px" viewBox="0 0 1024 768" enable-background="new 0 0 1024 768" xml:space="preserve">
<g id="Layer_1_1_">
	
		<image overflow="visible" enable-background="new    " width="1024" height="768" xlink:href="readingRoom.jpg"  transform="matrix(1 0 0 1 0 2.441406e-004)">
	</image>
	
		<image overflow="visible" enable-background="new    " width="51" height="52" id="livre2" xlink:href="14.png"  transform="matrix(1.1767 0 0 1.1767 854.5771 457.0735)">
	</image>
	
		<image overflow="visible" enable-background="new    " width="36" height="41" id="tasse" xlink:href="15.png"  transform="matrix(1 0 0 1 448.9941 414.4592)">
	</image>
	
		<image overflow="visible" enable-background="new    " width="47" height="34" id="telegramme" xlink:href="16.png"  transform="matrix(1 0 0 1 279.1826 283.0784)">
	</image>
	
		<image overflow="visible" enable-background="new    " width="71" height="48" id="livre1" xlink:href="17.png"  transform="matrix(0.8499 0 0 0.8499 251.2539 521.6057)">
	</image>
	
		<image overflow="visible" enable-background="new    " width="97" height="121" id="chapeau" xlink:href="18.png"  transform="matrix(1 0 0 1 38.877 144.1155)">
	</image>
	
		<image overflow="visible" opacity="0.5" enable-background="new    " width="301" height="278" id="feu" xlink:href="19.png"  transform="matrix(1 0 0 1 410.9736 91.9592)">
	</image>
</g>
<g id="Layer_2">
	<path id="livre" fill="#0F00E7" stroke="#231F20" stroke-miterlimit="10" d="M857.333,487.664c0,0,0.667-6.664,2.167-7.5
		c1.5-0.834,30.833-13.834,30.833-13.834l23.333,14.334l-1.833,7c0,0-33.167,17.834-36,16.834S857.333,487.664,857.333,487.664z"/>
	<path id="tasse_1_" fill="#0F00E7" stroke="#231F20" stroke-miterlimit="10" d="M458.625,439.75c0,0-2.5-2.125-1.25-9.75
		s11.875-8.875,11.875-8.875s7.625,4.25,7.625,4.625s-1.125,5.5-1.625,6s0,6.75,1,6.75s5.5,4.125,5.5,5.375s-5.25,5.5-7.375,6.25
		s-21.75-2.375-21.75-4.125S458.625,439.75,458.625,439.75z"/>
	<path id="livre2_1_" fill="#0F00E7" stroke="#231F20" stroke-miterlimit="10" d="M276.625,522.625c0,0,27.25,0.25,27.125,4.125
		s-4,9.875-4.375,10.75s-15.875,22.875-17,23.125s-10.875,0.5-11.375,0s-17.875,0.25-14.5-9.125S276.625,522.625,276.625,522.625z"
		/>
	<path id="chapeau_1_" fill="#0F00E7" stroke="#231F20" stroke-miterlimit="10" d="M62.25,199.5c0,0,12.5,61.5,41.25,56
		c11.27-3.131,11.5-14,11.5-14s7.75,2.75,9.5,1.5s12.25-24-16.5-24c0.75-13.5-22.75-42.75-30-38.5C78.5,171,58.5,153,54.75,153
		s-5.75,11.5-5.5,13.5s8,12,8,12L62.25,199.5z"/>
	<path id="telgram" fill="#0F00E7" stroke="#231F20" stroke-miterlimit="10" d="M286.833,306c0,0,23.833,2.5,25.167,5
		s7.5-11.334,5.167-12c-2.333-0.67-5.333,0.83-4.5-4.167c-1.667-3.833-11.334-3-13.167,0c-6.167,0.167-5.666-0.167-6.833,1
		S286.833,306,286.833,306z"/>
	<path id="feu_1_" fill="#0F00E7" stroke="#231F20" stroke-miterlimit="10" d="M543.833,188.667c0,0,30-3.333,30-1.5
		s-1.666,29.833-1.666,32.667s-21.834,6.102-24.834,5.602C543.5,223.333,543.833,197.834,543.833,188.667z"/>
</g>
<g id="characters">
	<path fill="#FF1FFF" d="M338.5,506.831c0,0-1.333-9.331-2-15c-0.667-5.665,1.333-26.665,3.333-28.665s10-6.414,12.667-7.707
		s19-14.625,18.667-15.959c-0.333-1.336,0.005,15.959,0.005,15.959s5.995,0.372,7.328,8.372s1,14,0,18s-4.667,17.667-4.667,20.667
		s8,15.336,10.667,16.001c2.667,0.666,6.667,8.666,7,11.666s2.333,26.332,2.333,28c0,1.666-21.667,4.332-22,11
		c-0.333,6.666,0.333,57-1.667,57S381.5,655.834,381.5,658.5s5.333,31.666,5.333,31.666s-0.667,4.666-8.667,4.666
		s-13.333,10.334-27,14c-13.667,3.668-33.333-9.334-35.333-9.666c-2-0.334-14.333-7-18-7s-7,13.97-7.667,17.316
		c-0.667,3.35-8.743,35.018-8.743,35.018s-13.257,10-14.59,10s-15.58,0-15.58,0l-2.087-9.669l19.667-50l-17.58,5.334l-22.42-6.334
		l-3.333-12l23.667-8.331l35.667-67.334l47-7.666l7.667-16l-27.906-5.669l2.239-11l11.685-6.907l15.648-23.759l3.333-20
		L338.5,506.831z"/>
</g>
<path id="ljustre" fill="#00E70B" stroke="#000000" stroke-miterlimit="10" d="M379,48c2-9.5,18-6.333,19.167-5.667s0-10,0-10
	S416.333,33.5,417,33.667s8.667-0.166,5.833,1.667s-5.167,4.833-5.167,5.5s25.5,6.333,24.833,8.833s-9.667,20.5-27.667,20.5
	S377,57.5,379,48z"/>
<path id="horloge" fill="#00E70B" stroke="#000000" stroke-miterlimit="10" d="M541.625,142.625c0,0-1.75-16,0-18.75
	s7.5-8.625,8.625-9.375s11.125,5.75,10,7.375s2.75,2,2.75,2s2,16.875,2,18.75S541.625,142.625,541.625,142.625z"/>
<path id="manteau" fill="#00E70B" d="M41.167,309.834c0-5.667-2.29-30.333-2.29-38.667S36.5,233.5,36.5,222.834s-2.377-25,0-29.333
	s2.944-7,1.805-10.333c-1.139-3.333,9.319-10.333,10.924-9s8.167,4.944,8.485,6.282c0.318,1.337,21.12,68.384,21.786,69.384
	s-4,16-4,19.333s-2.333,27.821-3.333,30.91c-1,3.09-18.208,15.089-22.938,14.089S41.167,309.834,41.167,309.834z"/>
<path id="pilier" fill="#FFFFFF" stroke="#000000" stroke-miterlimit="10" d="M736.5,0c0,0-7,721.5-8,725.5s14,32,78,0V0H736.5z"/>
<path id="pot" fill="#00E70B" stroke="#000000" stroke-miterlimit="10" d="M967.5,547c0-7.5-13-25.977-11.5-28.738
	s13,9.738,14.5-6.762s-13.121-26.131-7.311-26.065S971.217,473,970.608,473s-14.349,8-14.729,2.5s0-63,0-63L994,381l-49.5-38.5
	l-29.911,31v26L945,409v67.5l-23.5,2l-2,4l15,2.935L925,509l11.5,9.262l12,4.738l-7,5.5l-10.5,7l1.5,11.5H967.5z"/>
<path id="fauteil" fill="#00E70B" stroke="#000000" stroke-miterlimit="10" d="M534,740.654L555.5,696c0,0,81.5,12.5,87,12
	s16.5,25,16.5,25v-18.5l60-229.065h-20L651.5,543l-55.5-2l-4,17l-19.5,36l-19,19.044L543,647l-6,30.5l4.5,9L534,740.654z"/>
<path id="tapis" fill="#00E70B" stroke="#000000" stroke-miterlimit="10" d="M309.667,511.5c0,0,44.833-75.5,49.333-80.5
	s-130.5-16.541-130.5-16.541S196.5,480,197,483s4,75.5,4,75.5L60,547c0,0-2.5-74.5,50-74c13.5-3.5,9,15.5,11,4.5s4.5-56.5,44-67
	c-28.5-12-129.557-13-129.557-13L13,499c0,0,2,25,0,31s47,17,47,17l141,11.5l39.5,3.9l35.5-44.9L309.667,511.5z"/>
</svg>
