<?xml version="1.0" encoding="utf-8"?>
<!-- Generator: Adobe Illustrator 16.0.0, SVG Export Plug-In . SVG Version: 6.00 Build 0)  -->
<!DOCTYPE svg PUBLIC "-//W3C//DTD SVG 1.1//EN" "http://www.w3.org/Graphics/SVG/1.1/DTD/svg11.dtd">
<svg version="1.1" id="Layer_1" xmlns="http://www.w3.org/2000/svg" xmlns:xlink="http://www.w3.org/1999/xlink" x="0px" y="0px"
	 width="1024px" height="768px" viewBox="0 0 1024 768" enable-background="new 0 0 1024 768" xml:space="preserve">
<image overflow="visible" enable-background="new    " width="128" height="88" xlink:href="0.png"  transform="matrix(1 0 0 1 315.334 374.3303)">
</image>
<image overflow="visible" enable-background="new    " width="112" height="70" xlink:href="1.png"  transform="matrix(1 0 0 1 254.6875 328.6663)">
</image>
<image overflow="visible" enable-background="new    " width="74" height="75" xlink:href="2.png"  transform="matrix(1 0 0 1 143.4355 70.9846)">
</image>
<path fill="#FFFFFF" stroke="#000000" stroke-miterlimit="10" d="M154.167,94.5l20-23.516l23.333,3.849l9,16.667v32.333
	l-9.333,17.667l-16.731,2l-18.602,2.484c0,0-11.333-17.484-11.333-18.484S154.167,94.5,154.167,94.5z"/>
<path fill="#FFFFFF" stroke="#000000" stroke-miterlimit="10" d="M265.167,351.834l50.167-15H334.5l29.333,18l-1.333,12.333l-9,6
	c0,0-37.333,17.667-39,18s-24,5-24,5s2,8.001,0.333,7.667s-30-10-30-10l-3.333-35L265.167,351.834z"/>
<path fill="#FFFFFF" stroke="#000000" stroke-miterlimit="10" d="M320.5,409.167l36-17.667l21-10l23.333-5.333l31.667,3l4,12
	l1.667,12.677l-21.333,9.656c0,0-21.333,11.334-22.667,11.667S373.5,428.5,373.5,428.5l-6.813,14.334l-13.521,7.666h-16
	c0,0-13.334-2.332-14.667-4.666s-7.166-25.334-7.166-25.334L320.5,409.167z"/>
</svg>
