<?xml version="1.0" encoding="utf-8"?>
<!-- Generator: Adobe Illustrator 16.0.0, SVG Export Plug-In . SVG Version: 6.00 Build 0)  -->
<!DOCTYPE svg PUBLIC "-//W3C//DTD SVG 1.1//EN" "http://www.w3.org/Graphics/SVG/1.1/DTD/svg11.dtd">
<svg version="1.1" id="Layer_1" xmlns="http://www.w3.org/2000/svg" xmlns:xlink="http://www.w3.org/1999/xlink" x="0px" y="0px"
	 width="1024px" height="768px" viewBox="0 0 1024 768" enable-background="new 0 0 1024 768" xml:space="preserve">
<image overflow="visible" enable-background="new    " width="1024" height="768" xlink:href="firstClassBoat.jpg"  transform="matrix(1 0 0 1 0 2.441406e-004)">
</image>
<path fill="#FFFFFF" stroke="#231F20" stroke-miterlimit="10" d="M615.501,652.332c0,0,8.167-21.166,10.5-25.5
	c2.333-4.332-0.166-4.666-2.5-4.666s-5.167-5.334-3.167-7.166c2-1.834,4.334-3.334,5.167-6.334s12.833-8.332,14.333-7
	c1.5,1.334,2.499,3.666,4.333,3.334c1.834-0.334,12.834,6.166,13.667,6.832c0.833,0.668,2.5,7.5,0,10.168
	c-2.5,2.666-8.167,6.998-8.167,11.832s3.5,12.5,3.5,15.668c0,3.166-2.833,15.403-2.833,18.451c0,3.049,1.501,9.381,1.667,11.549
	c0.166,2.166,0,4.832,2.5,4.832s4.666-0.331,1.166,2.834c-3.5,3.166-6.5,4.666-9.333,4.666s-3.833,2.166-3.833-4s-0.5-11.666-1-12.5
	c-0.5-0.832-6.166-2-7,3.168c-0.834,5.166-3.001,12.166-4.834,13c-1.833,0.832-8.499,2.903-9.666,0.701
	c-1.167-2.201,3.167-1.701,4-6.701s0.167-10.666-1-12.334c-1.167-1.666-4.834-6.334-6.667-7.334s-10-6.834-8-9
	S615.501,652.332,615.501,652.332z"/>
<path fill="#FFFFFF" stroke="#231F20" stroke-miterlimit="10" d="M0.5,521.75c0-1.5,16.5-56,22-59.75s15.5-10,17.75-9.75
	S38.5,488.5,38.5,489.5S26,524,23.25,525.75s-12.5,11-12.5,11H0L0.5,521.75z"/>
<path id="canot_1" fill="#FFFFFF" stroke="#000000" stroke-miterlimit="10" d="M624.5,299.834c0,0-34.666-25.334-22.666-48.667
	s41.333-28.667,41.333-28.667s67.335,14,99.333,32.667s66,82,66.667,90.667S789.834,390.5,789.834,390.5s-27.334,4.667-30.667,2.667
	S624.5,299.834,624.5,299.834z"/>
</svg>
